<mxfile host="Electron" modified="2023-08-24T09:24:54.731Z" agent="Mozilla/5.0 (Windows NT 10.0; Win64; x64) AppleWebKit/537.36 (KHTML, like Gecko) draw.io/21.6.8 Chrome/114.0.5735.289 Electron/25.5.0 Safari/537.36" etag="MDGSZOB_mOgW2KIjm23C" version="21.6.8" type="device">
  <diagram id="C5RBs43oDa-KdzZeNtuy" name="Page-1">
    <mxGraphModel dx="2267" dy="1815" grid="1" gridSize="10" guides="1" tooltips="1" connect="1" arrows="1" fold="1" page="1" pageScale="1" pageWidth="1169" pageHeight="827" math="0" shadow="0">
      <root>
        <mxCell id="WIyWlLk6GJQsqaUBKTNV-0" />
        <mxCell id="WIyWlLk6GJQsqaUBKTNV-1" parent="WIyWlLk6GJQsqaUBKTNV-0" />
        <mxCell id="PiVPIacsJQTUX6XWT7j2-0" value="" style="rounded=1;whiteSpace=wrap;html=1;shadow=0;glass=0;arcSize=10;fillColor=#fad7ac;strokeColor=#b46504;" vertex="1" parent="WIyWlLk6GJQsqaUBKTNV-1">
          <mxGeometry x="-1120" y="502" width="190" height="80" as="geometry" />
        </mxCell>
        <mxCell id="5Gar_HWYRisM9vSzeSFC-234" value="" style="rounded=1;whiteSpace=wrap;html=1;shadow=0;glass=0;arcSize=10;fillColor=#fad7ac;strokeColor=#b46504;" parent="WIyWlLk6GJQsqaUBKTNV-1" vertex="1">
          <mxGeometry x="-195" y="470" width="190" height="90" as="geometry" />
        </mxCell>
        <mxCell id="5Gar_HWYRisM9vSzeSFC-221" value="" style="rounded=1;whiteSpace=wrap;html=1;shadow=0;glass=0;arcSize=10;fillColor=#fad7ac;strokeColor=#b46504;" parent="WIyWlLk6GJQsqaUBKTNV-1" vertex="1">
          <mxGeometry x="-495" y="243" width="203" height="150" as="geometry" />
        </mxCell>
        <mxCell id="5Gar_HWYRisM9vSzeSFC-211" value="" style="rounded=1;whiteSpace=wrap;html=1;shadow=0;glass=0;arcSize=10;fillColor=#fad7ac;strokeColor=#b46504;" parent="WIyWlLk6GJQsqaUBKTNV-1" vertex="1">
          <mxGeometry x="-373" y="-158" width="190" height="150" as="geometry" />
        </mxCell>
        <mxCell id="5Gar_HWYRisM9vSzeSFC-105" value="" style="rounded=1;whiteSpace=wrap;html=1;fillColor=#e1d5e7;strokeColor=#9673a6;arcSize=6;" parent="WIyWlLk6GJQsqaUBKTNV-1" vertex="1">
          <mxGeometry x="-480" y="-467" width="180" height="240" as="geometry" />
        </mxCell>
        <mxCell id="5Gar_HWYRisM9vSzeSFC-64" value="" style="rounded=1;whiteSpace=wrap;html=1;fillColor=#dae8fc;strokeColor=#6c8ebf;arcSize=6;" parent="WIyWlLk6GJQsqaUBKTNV-1" vertex="1">
          <mxGeometry x="-485" y="-777" width="200" height="270" as="geometry" />
        </mxCell>
        <mxCell id="5Gar_HWYRisM9vSzeSFC-61" value="" style="rounded=1;whiteSpace=wrap;html=1;fillColor=#fff2cc;strokeColor=#d6b656;shadow=0;glass=0;arcSize=6;" parent="WIyWlLk6GJQsqaUBKTNV-1" vertex="1">
          <mxGeometry x="-1155" y="-777" width="570" height="640" as="geometry" />
        </mxCell>
        <mxCell id="5Gar_HWYRisM9vSzeSFC-0" value="&lt;i&gt;prepData.py&lt;/i&gt;" style="swimlane;fontStyle=0;childLayout=stackLayout;horizontal=1;startSize=30;horizontalStack=0;resizeParent=1;resizeParentMax=0;resizeLast=0;collapsible=1;marginBottom=0;whiteSpace=wrap;html=1;resizable=0;deletable=0;" parent="WIyWlLk6GJQsqaUBKTNV-1" vertex="1">
          <mxGeometry x="-470" y="-457" width="160" height="210" as="geometry" />
        </mxCell>
        <mxCell id="5Gar_HWYRisM9vSzeSFC-1" value="&lt;i&gt;create_simulation_df()&lt;/i&gt;" style="text;strokeColor=none;fillColor=none;align=left;verticalAlign=middle;spacingLeft=4;spacingRight=4;overflow=hidden;points=[[0,0.5],[1,0.5]];portConstraint=eastwest;rotatable=0;whiteSpace=wrap;html=1;resizable=0;deletable=0;" parent="5Gar_HWYRisM9vSzeSFC-0" vertex="1">
          <mxGeometry y="30" width="160" height="30" as="geometry" />
        </mxCell>
        <mxCell id="5Gar_HWYRisM9vSzeSFC-2" value="&lt;i&gt;create_trajet_df()&lt;/i&gt;" style="text;strokeColor=none;fillColor=none;align=left;verticalAlign=middle;spacingLeft=4;spacingRight=4;overflow=hidden;points=[[0,0.5],[1,0.5]];portConstraint=eastwest;rotatable=0;whiteSpace=wrap;html=1;resizable=0;deletable=0;" parent="5Gar_HWYRisM9vSzeSFC-0" vertex="1">
          <mxGeometry y="60" width="160" height="30" as="geometry" />
        </mxCell>
        <mxCell id="5Gar_HWYRisM9vSzeSFC-3" value="&lt;i&gt;create_utilisateurs_df()&lt;/i&gt;" style="text;strokeColor=none;fillColor=none;align=left;verticalAlign=middle;spacingLeft=4;spacingRight=4;overflow=hidden;points=[[0,0.5],[1,0.5]];portConstraint=eastwest;rotatable=0;whiteSpace=wrap;html=1;resizable=0;deletable=0;" parent="5Gar_HWYRisM9vSzeSFC-0" vertex="1">
          <mxGeometry y="90" width="160" height="30" as="geometry" />
        </mxCell>
        <mxCell id="5Gar_HWYRisM9vSzeSFC-49" value="&lt;i&gt;create_point_arret_df()&lt;/i&gt;" style="text;strokeColor=none;fillColor=none;align=left;verticalAlign=middle;spacingLeft=4;spacingRight=4;overflow=hidden;points=[[0,0.5],[1,0.5]];portConstraint=eastwest;rotatable=0;whiteSpace=wrap;html=1;resizable=0;deletable=0;" parent="5Gar_HWYRisM9vSzeSFC-0" vertex="1">
          <mxGeometry y="120" width="160" height="30" as="geometry" />
        </mxCell>
        <mxCell id="5Gar_HWYRisM9vSzeSFC-112" value="&lt;i&gt;create_utilisateurs_df()&lt;/i&gt;" style="text;strokeColor=none;fillColor=none;align=left;verticalAlign=middle;spacingLeft=4;spacingRight=4;overflow=hidden;points=[[0,0.5],[1,0.5]];portConstraint=eastwest;rotatable=0;whiteSpace=wrap;html=1;resizable=0;deletable=0;" parent="5Gar_HWYRisM9vSzeSFC-0" vertex="1">
          <mxGeometry y="150" width="160" height="30" as="geometry" />
        </mxCell>
        <mxCell id="5Gar_HWYRisM9vSzeSFC-73" value="&lt;i&gt;create_geodataframe()&lt;/i&gt;" style="text;strokeColor=none;fillColor=none;align=left;verticalAlign=middle;spacingLeft=4;spacingRight=4;overflow=hidden;points=[[0,0.5],[1,0.5]];portConstraint=eastwest;rotatable=0;whiteSpace=wrap;html=1;resizable=0;deletable=0;" parent="5Gar_HWYRisM9vSzeSFC-0" vertex="1">
          <mxGeometry y="180" width="160" height="30" as="geometry" />
        </mxCell>
        <mxCell id="5Gar_HWYRisM9vSzeSFC-4" value="&lt;i&gt;histogramme.py&lt;/i&gt;" style="swimlane;fontStyle=0;childLayout=stackLayout;horizontal=1;startSize=30;horizontalStack=0;resizeParent=1;resizeParentMax=0;resizeLast=0;collapsible=1;marginBottom=0;whiteSpace=wrap;html=1;" parent="WIyWlLk6GJQsqaUBKTNV-1" vertex="1">
          <mxGeometry x="-183" y="-490" width="140" height="120" as="geometry" />
        </mxCell>
        <mxCell id="5Gar_HWYRisM9vSzeSFC-5" value="Item 1" style="text;strokeColor=none;fillColor=none;align=left;verticalAlign=middle;spacingLeft=4;spacingRight=4;overflow=hidden;points=[[0,0.5],[1,0.5]];portConstraint=eastwest;rotatable=0;whiteSpace=wrap;html=1;" parent="5Gar_HWYRisM9vSzeSFC-4" vertex="1">
          <mxGeometry y="30" width="140" height="30" as="geometry" />
        </mxCell>
        <mxCell id="5Gar_HWYRisM9vSzeSFC-6" value="Item 2" style="text;strokeColor=none;fillColor=none;align=left;verticalAlign=middle;spacingLeft=4;spacingRight=4;overflow=hidden;points=[[0,0.5],[1,0.5]];portConstraint=eastwest;rotatable=0;whiteSpace=wrap;html=1;" parent="5Gar_HWYRisM9vSzeSFC-4" vertex="1">
          <mxGeometry y="60" width="140" height="30" as="geometry" />
        </mxCell>
        <mxCell id="5Gar_HWYRisM9vSzeSFC-7" value="Item 3" style="text;strokeColor=none;fillColor=none;align=left;verticalAlign=middle;spacingLeft=4;spacingRight=4;overflow=hidden;points=[[0,0.5],[1,0.5]];portConstraint=eastwest;rotatable=0;whiteSpace=wrap;html=1;" parent="5Gar_HWYRisM9vSzeSFC-4" vertex="1">
          <mxGeometry y="90" width="140" height="30" as="geometry" />
        </mxCell>
        <mxCell id="5Gar_HWYRisM9vSzeSFC-37" value="point_arret.csv" style="swimlane;whiteSpace=wrap;html=1;" parent="WIyWlLk6GJQsqaUBKTNV-1" vertex="1">
          <mxGeometry x="-735" y="-337" width="140" height="130" as="geometry" />
        </mxCell>
        <mxCell id="5Gar_HWYRisM9vSzeSFC-41" value="id&lt;br&gt;id_simulation&lt;br&gt;index&lt;br&gt;temps_sur_place_min&lt;br&gt;longitude&lt;br&gt;latitude" style="text;html=1;align=left;verticalAlign=middle;resizable=0;points=[];autosize=1;strokeColor=none;fillColor=none;" parent="5Gar_HWYRisM9vSzeSFC-37" vertex="1">
          <mxGeometry x="10" y="30" width="140" height="100" as="geometry" />
        </mxCell>
        <mxCell id="5Gar_HWYRisM9vSzeSFC-38" value="simulation.csv" style="swimlane;whiteSpace=wrap;html=1;" parent="WIyWlLk6GJQsqaUBKTNV-1" vertex="1">
          <mxGeometry x="-1145" y="-727" width="280" height="370" as="geometry" />
        </mxCell>
        <mxCell id="5Gar_HWYRisM9vSzeSFC-42" value="id&lt;br&gt;nom&lt;br&gt;id_utilisateur&lt;br&gt;exploitation&lt;br&gt;id_vehicule&lt;br&gt;id_silhouette&lt;br&gt;id_categorie&lt;br&gt;nb_points_livres&lt;br&gt;nb_trajets&lt;br&gt;temps_autres_activites_logistiques_min&lt;br&gt;temps_chargement_dechargement_livraison_min&lt;br&gt;temps_conduite_min&lt;br&gt;cout_horaire_conduite&lt;br&gt;cout_horaire_autre&lt;br&gt;autres_couts&lt;br&gt;quantite&lt;br&gt;unite&lt;br&gt;resultat_affiche&lt;br&gt;effacee&lt;br&gt;type_simulation&lt;br&gt;api&lt;br&gt;cout_producteur&lt;br&gt;cout_collectif" style="text;html=1;align=left;verticalAlign=middle;resizable=0;points=[];autosize=1;strokeColor=none;fillColor=none;" parent="5Gar_HWYRisM9vSzeSFC-38" vertex="1">
          <mxGeometry x="10" y="30" width="290" height="340" as="geometry" />
        </mxCell>
        <mxCell id="5Gar_HWYRisM9vSzeSFC-40" value="usage.csv" style="swimlane;whiteSpace=wrap;html=1;" parent="WIyWlLk6GJQsqaUBKTNV-1" vertex="1">
          <mxGeometry x="-965" y="-347" width="220" height="160" as="geometry" />
        </mxCell>
        <mxCell id="5Gar_HWYRisM9vSzeSFC-44" value="&lt;div&gt;nb_visites&lt;/div&gt;&lt;div&gt;nb_comptes_crees&lt;/div&gt;&lt;div&gt;nb_comptes_actifs&lt;/div&gt;&lt;div&gt;nb_simulations_reelles&lt;/div&gt;&lt;div&gt;nb_simulations_projets&lt;/div&gt;&lt;div&gt;nb_simulations_api&lt;/div&gt;&lt;div&gt;nb_simulations_anonymes&lt;/div&gt;&lt;div&gt;nb_simulation_utilisateurs_connectes&lt;/div&gt;&lt;div&gt;&lt;br&gt;&lt;/div&gt;" style="text;html=1;align=left;verticalAlign=middle;resizable=0;points=[];autosize=1;strokeColor=none;fillColor=none;" parent="5Gar_HWYRisM9vSzeSFC-40" vertex="1">
          <mxGeometry x="10" y="30" width="220" height="140" as="geometry" />
        </mxCell>
        <mxCell id="5Gar_HWYRisM9vSzeSFC-55" value="COMMUNE.SHP" style="swimlane;whiteSpace=wrap;html=1;" parent="WIyWlLk6GJQsqaUBKTNV-1" vertex="1">
          <mxGeometry x="-475" y="-647" width="180" height="60" as="geometry" />
        </mxCell>
        <mxCell id="5Gar_HWYRisM9vSzeSFC-57" value="CHFLIEU_COMMUNE.SHP" style="swimlane;whiteSpace=wrap;html=1;startSize=23;" parent="WIyWlLk6GJQsqaUBKTNV-1" vertex="1">
          <mxGeometry x="-475" y="-727" width="180" height="60" as="geometry" />
        </mxCell>
        <mxCell id="5Gar_HWYRisM9vSzeSFC-193" value="City administrative center position" style="text;html=1;strokeColor=none;fillColor=none;align=center;verticalAlign=middle;whiteSpace=wrap;rounded=0;" parent="5Gar_HWYRisM9vSzeSFC-57" vertex="1">
          <mxGeometry x="5" y="20" width="175" height="40" as="geometry" />
        </mxCell>
        <mxCell id="5Gar_HWYRisM9vSzeSFC-58" value="FRANCE.SHP" style="swimlane;whiteSpace=wrap;html=1;" parent="WIyWlLk6GJQsqaUBKTNV-1" vertex="1">
          <mxGeometry x="-475" y="-577" width="180" height="60" as="geometry" />
        </mxCell>
        <mxCell id="5Gar_HWYRisM9vSzeSFC-39" value="trajet.csv" style="swimlane;whiteSpace=wrap;html=1;" parent="WIyWlLk6GJQsqaUBKTNV-1" vertex="1">
          <mxGeometry x="-735" y="-727" width="140" height="370" as="geometry" />
        </mxCell>
        <mxCell id="5Gar_HWYRisM9vSzeSFC-43" value="id&lt;br&gt;id_simulation&lt;br&gt;id_depart&lt;br&gt;id_arrivee&lt;br&gt;polyligne&lt;br&gt;kilometrage&lt;br&gt;temps_conduite_min&lt;br&gt;urbain_tres_dense&lt;br&gt;urbain_dense&lt;br&gt;urbain&lt;br&gt;urbain_diffus&lt;br&gt;interurbain&lt;br&gt;CO_g&lt;br&gt;COV_g&lt;br&gt;NOX_g&lt;br&gt;NH3_g&lt;br&gt;PB_g&lt;br&gt;SO2_g&lt;br&gt;PS_g&lt;br&gt;CO2_g&lt;br&gt;N2O_g&lt;br&gt;CH4_g&lt;br&gt;cout collectif" style="text;html=1;align=left;verticalAlign=middle;resizable=0;points=[];autosize=1;strokeColor=none;fillColor=none;" parent="5Gar_HWYRisM9vSzeSFC-39" vertex="1">
          <mxGeometry x="10" y="30" width="130" height="340" as="geometry" />
        </mxCell>
        <mxCell id="5Gar_HWYRisM9vSzeSFC-51" value="utilisateurs.xls" style="swimlane;whiteSpace=wrap;html=1;" parent="WIyWlLk6GJQsqaUBKTNV-1" vertex="1">
          <mxGeometry x="-1145" y="-347" width="170" height="200" as="geometry" />
        </mxCell>
        <mxCell id="5Gar_HWYRisM9vSzeSFC-52" value="&lt;div&gt;id&lt;/div&gt;&lt;div&gt;date_creation_compte&lt;/div&gt;&lt;div&gt;date_derniere_connexion&lt;/div&gt;&lt;div&gt;type_produit déclaré&lt;/div&gt;&lt;div&gt;precision&lt;/div&gt;&lt;div&gt;nb_calculs_reels&lt;/div&gt;&lt;div&gt;nb_calculs_projets&lt;/div&gt;&lt;div&gt;prise en compte O/N ENSG&lt;/div&gt;&lt;div&gt;type_utilisateur_GR&lt;/div&gt;&lt;div&gt;Produit_GR&lt;/div&gt;&lt;div&gt;Doublons_GR&lt;/div&gt;" style="text;html=1;align=left;verticalAlign=middle;resizable=0;points=[];autosize=1;strokeColor=none;fillColor=none;" parent="5Gar_HWYRisM9vSzeSFC-51" vertex="1">
          <mxGeometry x="10" y="30" width="170" height="170" as="geometry" />
        </mxCell>
        <mxCell id="5Gar_HWYRisM9vSzeSFC-63" value="&lt;b&gt;&lt;font style=&quot;font-size: 18px;&quot;&gt;Extract from Logicout&lt;/font&gt;&lt;/b&gt;" style="text;html=1;strokeColor=none;fillColor=none;align=center;verticalAlign=middle;whiteSpace=wrap;rounded=0;" parent="WIyWlLk6GJQsqaUBKTNV-1" vertex="1">
          <mxGeometry x="-965" y="-767" width="190" height="30" as="geometry" />
        </mxCell>
        <mxCell id="5Gar_HWYRisM9vSzeSFC-65" value="&lt;b&gt;&lt;font style=&quot;font-size: 18px;&quot;&gt;GeoData&lt;/font&gt;&lt;/b&gt;" style="text;html=1;strokeColor=none;fillColor=none;align=center;verticalAlign=middle;whiteSpace=wrap;rounded=0;" parent="WIyWlLk6GJQsqaUBKTNV-1" vertex="1">
          <mxGeometry x="-480" y="-767" width="190" height="30" as="geometry" />
        </mxCell>
        <mxCell id="5Gar_HWYRisM9vSzeSFC-81" value="" style="endArrow=classic;html=1;rounded=0;entryX=0.5;entryY=0;entryDx=0;entryDy=0;exitX=0.5;exitY=1;exitDx=0;exitDy=0;dashed=1;" parent="WIyWlLk6GJQsqaUBKTNV-1" source="5Gar_HWYRisM9vSzeSFC-211" target="5Gar_HWYRisM9vSzeSFC-115" edge="1">
          <mxGeometry relative="1" as="geometry">
            <mxPoint x="-274.94000000000005" y="-97" as="sourcePoint" />
            <mxPoint x="-345" y="-18" as="targetPoint" />
          </mxGeometry>
        </mxCell>
        <mxCell id="5Gar_HWYRisM9vSzeSFC-84" value="INPUT" style="edgeLabel;html=1;align=center;verticalAlign=middle;resizable=0;points=[];" parent="5Gar_HWYRisM9vSzeSFC-81" vertex="1" connectable="0">
          <mxGeometry x="0.0727" relative="1" as="geometry">
            <mxPoint x="6" y="-6" as="offset" />
          </mxGeometry>
        </mxCell>
        <mxCell id="5Gar_HWYRisM9vSzeSFC-85" value="" style="endArrow=classic;html=1;rounded=0;exitX=0.452;exitY=1;exitDx=0;exitDy=0;exitPerimeter=0;" parent="WIyWlLk6GJQsqaUBKTNV-1" source="5Gar_HWYRisM9vSzeSFC-64" edge="1">
          <mxGeometry relative="1" as="geometry">
            <mxPoint x="-396" y="-504" as="sourcePoint" />
            <mxPoint x="-395" y="-467" as="targetPoint" />
          </mxGeometry>
        </mxCell>
        <mxCell id="5Gar_HWYRisM9vSzeSFC-88" value="INPUT" style="edgeLabel;html=1;align=center;verticalAlign=middle;resizable=0;points=[];" parent="5Gar_HWYRisM9vSzeSFC-85" vertex="1" connectable="0">
          <mxGeometry x="0.0727" relative="1" as="geometry">
            <mxPoint y="-1" as="offset" />
          </mxGeometry>
        </mxCell>
        <mxCell id="5Gar_HWYRisM9vSzeSFC-97" value="" style="endArrow=classic;html=1;rounded=0;entryX=0.466;entryY=-0.02;entryDx=0;entryDy=0;exitX=0.75;exitY=1;exitDx=0;exitDy=0;entryPerimeter=0;" parent="WIyWlLk6GJQsqaUBKTNV-1" source="5Gar_HWYRisM9vSzeSFC-105" target="5Gar_HWYRisM9vSzeSFC-211" edge="1">
          <mxGeometry relative="1" as="geometry">
            <mxPoint x="-385" y="-227" as="sourcePoint" />
            <mxPoint x="-375" y="-187" as="targetPoint" />
          </mxGeometry>
        </mxCell>
        <mxCell id="5Gar_HWYRisM9vSzeSFC-100" value="OUTPUT" style="edgeLabel;html=1;align=center;verticalAlign=middle;resizable=0;points=[];" parent="5Gar_HWYRisM9vSzeSFC-97" vertex="1" connectable="0">
          <mxGeometry x="0.0727" relative="1" as="geometry">
            <mxPoint as="offset" />
          </mxGeometry>
        </mxCell>
        <mxCell id="5Gar_HWYRisM9vSzeSFC-101" value="" style="endArrow=classic;html=1;rounded=0;dashed=1;entryX=0.5;entryY=0;entryDx=0;entryDy=0;exitX=0.5;exitY=1;exitDx=0;exitDy=0;" parent="WIyWlLk6GJQsqaUBKTNV-1" source="5Gar_HWYRisM9vSzeSFC-209" target="5Gar_HWYRisM9vSzeSFC-115" edge="1">
          <mxGeometry relative="1" as="geometry">
            <mxPoint x="-455" y="-7" as="sourcePoint" />
            <mxPoint x="-414" y="62" as="targetPoint" />
          </mxGeometry>
        </mxCell>
        <mxCell id="5Gar_HWYRisM9vSzeSFC-103" value="INPUT" style="edgeLabel;html=1;align=center;verticalAlign=middle;resizable=0;points=[];" parent="5Gar_HWYRisM9vSzeSFC-101" vertex="1" connectable="0">
          <mxGeometry x="0.0727" relative="1" as="geometry">
            <mxPoint x="-11" y="-6" as="offset" />
          </mxGeometry>
        </mxCell>
        <mxCell id="5Gar_HWYRisM9vSzeSFC-104" value="&lt;b&gt;&lt;font style=&quot;font-size: 18px;&quot;&gt;OR&lt;/font&gt;&lt;/b&gt;" style="text;html=1;strokeColor=none;fillColor=none;align=center;verticalAlign=middle;whiteSpace=wrap;rounded=0;" parent="WIyWlLk6GJQsqaUBKTNV-1" vertex="1">
          <mxGeometry x="-420" y="23" width="60" height="29" as="geometry" />
        </mxCell>
        <mxCell id="5Gar_HWYRisM9vSzeSFC-106" value="" style="endArrow=classic;html=1;rounded=0;exitX=1;exitY=0.5;exitDx=0;exitDy=0;entryX=0;entryY=0.5;entryDx=0;entryDy=0;" parent="WIyWlLk6GJQsqaUBKTNV-1" source="5Gar_HWYRisM9vSzeSFC-61" target="5Gar_HWYRisM9vSzeSFC-105" edge="1">
          <mxGeometry relative="1" as="geometry">
            <mxPoint x="-385" y="-497" as="sourcePoint" />
            <mxPoint x="-385" y="-457" as="targetPoint" />
          </mxGeometry>
        </mxCell>
        <mxCell id="5Gar_HWYRisM9vSzeSFC-109" value="INPUT" style="edgeLabel;html=1;align=center;verticalAlign=middle;resizable=0;points=[];" parent="5Gar_HWYRisM9vSzeSFC-106" vertex="1" connectable="0">
          <mxGeometry x="0.0727" relative="1" as="geometry">
            <mxPoint as="offset" />
          </mxGeometry>
        </mxCell>
        <mxCell id="5Gar_HWYRisM9vSzeSFC-123" value="ranked_mutualisations.csv" style="swimlane;whiteSpace=wrap;html=1;" parent="WIyWlLk6GJQsqaUBKTNV-1" vertex="1">
          <mxGeometry x="-487.5" y="252" width="190" height="130" as="geometry" />
        </mxCell>
        <mxCell id="5Gar_HWYRisM9vSzeSFC-124" value="id&lt;br&gt;id_simulation&lt;br&gt;index&lt;br&gt;temps_sur_place_min&lt;br&gt;longitude&lt;br&gt;latitude" style="text;html=1;align=left;verticalAlign=middle;resizable=0;points=[];autosize=1;strokeColor=none;fillColor=none;" parent="5Gar_HWYRisM9vSzeSFC-123" vertex="1">
          <mxGeometry x="25" y="30" width="140" height="100" as="geometry" />
        </mxCell>
        <mxCell id="5Gar_HWYRisM9vSzeSFC-126" value="" style="endArrow=classic;html=1;rounded=0;exitX=0.5;exitY=1;exitDx=0;exitDy=0;entryX=0.5;entryY=0;entryDx=0;entryDy=0;" parent="WIyWlLk6GJQsqaUBKTNV-1" source="5Gar_HWYRisM9vSzeSFC-115" target="5Gar_HWYRisM9vSzeSFC-221" edge="1">
          <mxGeometry relative="1" as="geometry">
            <mxPoint x="-245" y="102" as="sourcePoint" />
            <mxPoint x="-225" y="97" as="targetPoint" />
          </mxGeometry>
        </mxCell>
        <mxCell id="5Gar_HWYRisM9vSzeSFC-127" value="OUTPUT" style="edgeLabel;html=1;align=center;verticalAlign=middle;resizable=0;points=[];" parent="5Gar_HWYRisM9vSzeSFC-126" vertex="1" connectable="0">
          <mxGeometry x="0.0727" relative="1" as="geometry">
            <mxPoint as="offset" />
          </mxGeometry>
        </mxCell>
        <mxCell id="5Gar_HWYRisM9vSzeSFC-147" value="" style="group" parent="WIyWlLk6GJQsqaUBKTNV-1" vertex="1" connectable="0">
          <mxGeometry x="-1115" y="101" width="180" height="210" as="geometry" />
        </mxCell>
        <mxCell id="5Gar_HWYRisM9vSzeSFC-122" value="" style="rounded=1;whiteSpace=wrap;html=1;fillColor=#d5e8d4;strokeColor=#82b366;" parent="5Gar_HWYRisM9vSzeSFC-147" vertex="1">
          <mxGeometry width="180" height="210" as="geometry" />
        </mxCell>
        <mxCell id="5Gar_HWYRisM9vSzeSFC-33" value="&lt;i&gt;use_data.py&lt;/i&gt;" style="swimlane;fontStyle=0;childLayout=stackLayout;horizontal=1;startSize=30;horizontalStack=0;resizeParent=1;resizeParentMax=0;resizeLast=0;collapsible=1;marginBottom=0;whiteSpace=wrap;html=1;" parent="5Gar_HWYRisM9vSzeSFC-147" vertex="1">
          <mxGeometry x="20" y="10" width="140" height="180" as="geometry" />
        </mxCell>
        <mxCell id="5Gar_HWYRisM9vSzeSFC-34" value="&lt;i&gt;create_gdf()&lt;/i&gt;" style="text;strokeColor=none;fillColor=none;align=left;verticalAlign=middle;spacingLeft=4;spacingRight=4;overflow=hidden;points=[[0,0.5],[1,0.5]];portConstraint=eastwest;rotatable=0;whiteSpace=wrap;html=1;" parent="5Gar_HWYRisM9vSzeSFC-33" vertex="1">
          <mxGeometry y="30" width="140" height="30" as="geometry" />
        </mxCell>
        <mxCell id="5Gar_HWYRisM9vSzeSFC-35" value="&lt;i&gt;line_to_points()&lt;/i&gt;" style="text;strokeColor=none;fillColor=none;align=left;verticalAlign=middle;spacingLeft=4;spacingRight=4;overflow=hidden;points=[[0,0.5],[1,0.5]];portConstraint=eastwest;rotatable=0;whiteSpace=wrap;html=1;" parent="5Gar_HWYRisM9vSzeSFC-33" vertex="1">
          <mxGeometry y="60" width="140" height="30" as="geometry" />
        </mxCell>
        <mxCell id="5Gar_HWYRisM9vSzeSFC-36" value="&lt;i&gt;line_to_coord()&lt;/i&gt;" style="text;strokeColor=none;fillColor=none;align=left;verticalAlign=middle;spacingLeft=4;spacingRight=4;overflow=hidden;points=[[0,0.5],[1,0.5]];portConstraint=eastwest;rotatable=0;whiteSpace=wrap;html=1;" parent="5Gar_HWYRisM9vSzeSFC-33" vertex="1">
          <mxGeometry y="90" width="140" height="30" as="geometry" />
        </mxCell>
        <mxCell id="5Gar_HWYRisM9vSzeSFC-131" value="&lt;i&gt;coord_lister()&lt;/i&gt;" style="text;strokeColor=none;fillColor=none;align=left;verticalAlign=middle;spacingLeft=4;spacingRight=4;overflow=hidden;points=[[0,0.5],[1,0.5]];portConstraint=eastwest;rotatable=0;whiteSpace=wrap;html=1;" parent="5Gar_HWYRisM9vSzeSFC-33" vertex="1">
          <mxGeometry y="120" width="140" height="30" as="geometry" />
        </mxCell>
        <mxCell id="5Gar_HWYRisM9vSzeSFC-132" value="&lt;i&gt;get_itineraire()&lt;/i&gt;" style="text;strokeColor=none;fillColor=none;align=left;verticalAlign=middle;spacingLeft=4;spacingRight=4;overflow=hidden;points=[[0,0.5],[1,0.5]];portConstraint=eastwest;rotatable=0;whiteSpace=wrap;html=1;" parent="5Gar_HWYRisM9vSzeSFC-33" vertex="1">
          <mxGeometry y="150" width="140" height="30" as="geometry" />
        </mxCell>
        <mxCell id="5Gar_HWYRisM9vSzeSFC-149" value="" style="group" parent="WIyWlLk6GJQsqaUBKTNV-1" vertex="1" connectable="0">
          <mxGeometry x="-825" y="-109" width="180" height="210" as="geometry" />
        </mxCell>
        <mxCell id="5Gar_HWYRisM9vSzeSFC-140" value="" style="rounded=1;whiteSpace=wrap;html=1;fillColor=#d5e8d4;strokeColor=#82b366;" parent="5Gar_HWYRisM9vSzeSFC-149" vertex="1">
          <mxGeometry width="180" height="210" as="geometry" />
        </mxCell>
        <mxCell id="5Gar_HWYRisM9vSzeSFC-141" value="&lt;i&gt;indexes.py&lt;/i&gt;" style="swimlane;fontStyle=0;childLayout=stackLayout;horizontal=1;startSize=30;horizontalStack=0;resizeParent=1;resizeParentMax=0;resizeLast=0;collapsible=1;marginBottom=0;whiteSpace=wrap;html=1;" parent="5Gar_HWYRisM9vSzeSFC-149" vertex="1">
          <mxGeometry x="20" y="10" width="140" height="180" as="geometry" />
        </mxCell>
        <mxCell id="5Gar_HWYRisM9vSzeSFC-142" value="&lt;i&gt;jacaard_index()&lt;/i&gt;" style="text;strokeColor=none;fillColor=none;align=left;verticalAlign=middle;spacingLeft=4;spacingRight=4;overflow=hidden;points=[[0,0.5],[1,0.5]];portConstraint=eastwest;rotatable=0;whiteSpace=wrap;html=1;" parent="5Gar_HWYRisM9vSzeSFC-141" vertex="1">
          <mxGeometry y="30" width="140" height="30" as="geometry" />
        </mxCell>
        <mxCell id="5Gar_HWYRisM9vSzeSFC-143" value="&lt;i&gt;dist_start()&lt;/i&gt;" style="text;strokeColor=none;fillColor=none;align=left;verticalAlign=middle;spacingLeft=4;spacingRight=4;overflow=hidden;points=[[0,0.5],[1,0.5]];portConstraint=eastwest;rotatable=0;whiteSpace=wrap;html=1;" parent="5Gar_HWYRisM9vSzeSFC-141" vertex="1">
          <mxGeometry y="60" width="140" height="30" as="geometry" />
        </mxCell>
        <mxCell id="5Gar_HWYRisM9vSzeSFC-144" value="&lt;i&gt;max_distance()&lt;/i&gt;" style="text;strokeColor=none;fillColor=none;align=left;verticalAlign=middle;spacingLeft=4;spacingRight=4;overflow=hidden;points=[[0,0.5],[1,0.5]];portConstraint=eastwest;rotatable=0;whiteSpace=wrap;html=1;" parent="5Gar_HWYRisM9vSzeSFC-141" vertex="1">
          <mxGeometry y="90" width="140" height="30" as="geometry" />
        </mxCell>
        <mxCell id="5Gar_HWYRisM9vSzeSFC-145" value="&lt;i&gt;index()&lt;/i&gt;" style="text;strokeColor=none;fillColor=none;align=left;verticalAlign=middle;spacingLeft=4;spacingRight=4;overflow=hidden;points=[[0,0.5],[1,0.5]];portConstraint=eastwest;rotatable=0;whiteSpace=wrap;html=1;" parent="5Gar_HWYRisM9vSzeSFC-141" vertex="1">
          <mxGeometry y="120" width="140" height="30" as="geometry" />
        </mxCell>
        <mxCell id="5Gar_HWYRisM9vSzeSFC-146" value="&lt;i&gt;get_itineraire()&lt;/i&gt;" style="text;strokeColor=none;fillColor=none;align=left;verticalAlign=middle;spacingLeft=4;spacingRight=4;overflow=hidden;points=[[0,0.5],[1,0.5]];portConstraint=eastwest;rotatable=0;whiteSpace=wrap;html=1;" parent="5Gar_HWYRisM9vSzeSFC-141" vertex="1">
          <mxGeometry y="150" width="140" height="30" as="geometry" />
        </mxCell>
        <mxCell id="5Gar_HWYRisM9vSzeSFC-150" value="" style="group" parent="WIyWlLk6GJQsqaUBKTNV-1" vertex="1" connectable="0">
          <mxGeometry x="-800" y="212" width="186" height="210" as="geometry" />
        </mxCell>
        <mxCell id="5Gar_HWYRisM9vSzeSFC-159" value="" style="group" parent="5Gar_HWYRisM9vSzeSFC-150" vertex="1" connectable="0">
          <mxGeometry x="16" y="11" width="180" height="86" as="geometry" />
        </mxCell>
        <mxCell id="5Gar_HWYRisM9vSzeSFC-133" value="" style="rounded=1;whiteSpace=wrap;html=1;fillColor=#d5e8d4;strokeColor=#82b366;container=1;" parent="5Gar_HWYRisM9vSzeSFC-159" vertex="1">
          <mxGeometry width="180" height="86" as="geometry" />
        </mxCell>
        <mxCell id="5Gar_HWYRisM9vSzeSFC-134" value="&lt;i&gt;IsInclude.py&lt;/i&gt;" style="swimlane;fontStyle=0;childLayout=stackLayout;horizontal=1;startSize=30;horizontalStack=0;resizeParent=1;resizeParentMax=0;resizeLast=0;collapsible=1;marginBottom=0;whiteSpace=wrap;html=1;" parent="5Gar_HWYRisM9vSzeSFC-159" vertex="1">
          <mxGeometry x="22" y="10" width="140" height="60" as="geometry" />
        </mxCell>
        <mxCell id="5Gar_HWYRisM9vSzeSFC-135" value="&lt;i&gt;IsIn_tournee_gdf()&lt;/i&gt;" style="text;strokeColor=none;fillColor=none;align=left;verticalAlign=middle;spacingLeft=4;spacingRight=4;overflow=hidden;points=[[0,0.5],[1,0.5]];portConstraint=eastwest;rotatable=0;whiteSpace=wrap;html=1;" parent="5Gar_HWYRisM9vSzeSFC-134" vertex="1">
          <mxGeometry y="30" width="140" height="30" as="geometry" />
        </mxCell>
        <mxCell id="5Gar_HWYRisM9vSzeSFC-120" value="" style="endArrow=classic;html=1;rounded=0;entryX=1;entryY=0.5;entryDx=0;entryDy=0;fontSize=23;exitX=0;exitY=0.5;exitDx=0;exitDy=0;" parent="WIyWlLk6GJQsqaUBKTNV-1" source="5Gar_HWYRisM9vSzeSFC-115" target="5Gar_HWYRisM9vSzeSFC-122" edge="1">
          <mxGeometry relative="1" as="geometry">
            <mxPoint x="-515" y="172" as="sourcePoint" />
            <mxPoint x="-715" y="-98" as="targetPoint" />
          </mxGeometry>
        </mxCell>
        <mxCell id="5Gar_HWYRisM9vSzeSFC-121" value="Depends on" style="edgeLabel;resizable=0;html=1;align=center;verticalAlign=middle;fontSize=17;" parent="5Gar_HWYRisM9vSzeSFC-120" connectable="0" vertex="1">
          <mxGeometry relative="1" as="geometry" />
        </mxCell>
        <mxCell id="5Gar_HWYRisM9vSzeSFC-155" value="" style="endArrow=classic;html=1;rounded=0;exitX=0;exitY=0.5;exitDx=0;exitDy=0;fontSize=23;entryX=1;entryY=0.25;entryDx=0;entryDy=0;" parent="WIyWlLk6GJQsqaUBKTNV-1" source="5Gar_HWYRisM9vSzeSFC-140" target="5Gar_HWYRisM9vSzeSFC-122" edge="1">
          <mxGeometry relative="1" as="geometry">
            <mxPoint x="-505" y="62" as="sourcePoint" />
            <mxPoint x="-935" y="-105" as="targetPoint" />
          </mxGeometry>
        </mxCell>
        <mxCell id="5Gar_HWYRisM9vSzeSFC-156" value="Depends on" style="edgeLabel;resizable=0;html=1;align=center;verticalAlign=middle;fontSize=17;" parent="5Gar_HWYRisM9vSzeSFC-155" connectable="0" vertex="1">
          <mxGeometry relative="1" as="geometry" />
        </mxCell>
        <mxCell id="5Gar_HWYRisM9vSzeSFC-158" value="" style="group" parent="WIyWlLk6GJQsqaUBKTNV-1" vertex="1" connectable="0">
          <mxGeometry x="-505" y="82" width="220" height="90" as="geometry" />
        </mxCell>
        <mxCell id="5Gar_HWYRisM9vSzeSFC-115" value="" style="rounded=1;whiteSpace=wrap;html=1;fillColor=#e1d5e7;strokeColor=#9673a6;arcSize=6;" parent="5Gar_HWYRisM9vSzeSFC-158" vertex="1">
          <mxGeometry width="220" height="90" as="geometry" />
        </mxCell>
        <mxCell id="5Gar_HWYRisM9vSzeSFC-12" value="&lt;i&gt;list_mutualisation_index.py&lt;/i&gt;" style="swimlane;fontStyle=0;childLayout=stackLayout;horizontal=1;startSize=30;horizontalStack=0;resizeParent=1;resizeParentMax=0;resizeLast=0;collapsible=1;marginBottom=0;whiteSpace=wrap;html=1;" parent="5Gar_HWYRisM9vSzeSFC-158" vertex="1">
          <mxGeometry x="15" y="10" width="190" height="60" as="geometry" />
        </mxCell>
        <mxCell id="5Gar_HWYRisM9vSzeSFC-13" value="&lt;i&gt;calculate_mutualisations()&lt;/i&gt;" style="text;strokeColor=none;fillColor=none;align=left;verticalAlign=middle;spacingLeft=4;spacingRight=4;overflow=hidden;points=[[0,0.5],[1,0.5]];portConstraint=eastwest;rotatable=0;whiteSpace=wrap;html=1;" parent="5Gar_HWYRisM9vSzeSFC-12" vertex="1">
          <mxGeometry y="30" width="190" height="30" as="geometry" />
        </mxCell>
        <mxCell id="5Gar_HWYRisM9vSzeSFC-160" value="" style="endArrow=classic;html=1;rounded=0;exitX=0;exitY=0.5;exitDx=0;exitDy=0;fontSize=23;entryX=1;entryY=0.75;entryDx=0;entryDy=0;" parent="WIyWlLk6GJQsqaUBKTNV-1" source="5Gar_HWYRisM9vSzeSFC-133" target="5Gar_HWYRisM9vSzeSFC-122" edge="1">
          <mxGeometry relative="1" as="geometry">
            <mxPoint x="-775" y="67" as="sourcePoint" />
            <mxPoint x="-925" y="198" as="targetPoint" />
          </mxGeometry>
        </mxCell>
        <mxCell id="5Gar_HWYRisM9vSzeSFC-161" value="Depends on" style="edgeLabel;resizable=0;html=1;align=center;verticalAlign=middle;fontSize=17;" parent="5Gar_HWYRisM9vSzeSFC-160" connectable="0" vertex="1">
          <mxGeometry relative="1" as="geometry" />
        </mxCell>
        <mxCell id="5Gar_HWYRisM9vSzeSFC-163" value="" style="group" parent="WIyWlLk6GJQsqaUBKTNV-1" vertex="1" connectable="0">
          <mxGeometry x="-505" y="432" width="220" height="90" as="geometry" />
        </mxCell>
        <mxCell id="5Gar_HWYRisM9vSzeSFC-164" value="" style="rounded=1;whiteSpace=wrap;html=1;fillColor=#e1d5e7;strokeColor=#9673a6;arcSize=6;" parent="5Gar_HWYRisM9vSzeSFC-163" vertex="1">
          <mxGeometry width="220" height="90" as="geometry" />
        </mxCell>
        <mxCell id="5Gar_HWYRisM9vSzeSFC-165" value="&lt;i&gt;main.py&lt;/i&gt;" style="swimlane;fontStyle=0;childLayout=stackLayout;horizontal=1;startSize=30;horizontalStack=0;resizeParent=1;resizeParentMax=0;resizeLast=0;collapsible=1;marginBottom=0;whiteSpace=wrap;html=1;" parent="5Gar_HWYRisM9vSzeSFC-163" vertex="1">
          <mxGeometry x="15" y="10" width="190" height="60" as="geometry" />
        </mxCell>
        <mxCell id="5Gar_HWYRisM9vSzeSFC-170" value="" style="endArrow=classic;html=1;rounded=0;exitX=0;exitY=0;exitDx=0;exitDy=0;fontSize=23;entryX=0.75;entryY=1;entryDx=0;entryDy=0;" parent="WIyWlLk6GJQsqaUBKTNV-1" source="5Gar_HWYRisM9vSzeSFC-164" target="5Gar_HWYRisM9vSzeSFC-122" edge="1">
          <mxGeometry relative="1" as="geometry">
            <mxPoint x="-791" y="461" as="sourcePoint" />
            <mxPoint x="-941" y="380" as="targetPoint" />
          </mxGeometry>
        </mxCell>
        <mxCell id="5Gar_HWYRisM9vSzeSFC-171" value="Depends on" style="edgeLabel;resizable=0;html=1;align=center;verticalAlign=middle;fontSize=17;" parent="5Gar_HWYRisM9vSzeSFC-170" connectable="0" vertex="1">
          <mxGeometry relative="1" as="geometry">
            <mxPoint x="-6" as="offset" />
          </mxGeometry>
        </mxCell>
        <mxCell id="5Gar_HWYRisM9vSzeSFC-188" value="" style="endArrow=classic;html=1;rounded=0;fontSize=23;entryX=1.019;entryY=0.475;entryDx=0;entryDy=0;entryPerimeter=0;exitX=0;exitY=0.5;exitDx=0;exitDy=0;" parent="WIyWlLk6GJQsqaUBKTNV-1" source="5Gar_HWYRisM9vSzeSFC-164" target="5Gar_HWYRisM9vSzeSFC-173" edge="1">
          <mxGeometry relative="1" as="geometry">
            <mxPoint x="-525" y="582" as="sourcePoint" />
            <mxPoint x="-970" y="321" as="targetPoint" />
          </mxGeometry>
        </mxCell>
        <mxCell id="5Gar_HWYRisM9vSzeSFC-189" value="Depends on" style="edgeLabel;resizable=0;html=1;align=center;verticalAlign=middle;fontSize=17;" parent="5Gar_HWYRisM9vSzeSFC-188" connectable="0" vertex="1">
          <mxGeometry relative="1" as="geometry" />
        </mxCell>
        <mxCell id="5Gar_HWYRisM9vSzeSFC-190" value="" style="endArrow=classic;html=1;rounded=0;fontSize=23;entryX=1;entryY=1;entryDx=0;entryDy=0;" parent="WIyWlLk6GJQsqaUBKTNV-1" source="5Gar_HWYRisM9vSzeSFC-173" target="5Gar_HWYRisM9vSzeSFC-181" edge="1">
          <mxGeometry relative="1" as="geometry">
            <mxPoint x="-931.5" y="576.29" as="sourcePoint" />
            <mxPoint x="-1078.5" y="558.29" as="targetPoint" />
          </mxGeometry>
        </mxCell>
        <mxCell id="5Gar_HWYRisM9vSzeSFC-191" value="Depends on" style="edgeLabel;resizable=0;html=1;align=center;verticalAlign=middle;fontSize=17;" parent="5Gar_HWYRisM9vSzeSFC-190" connectable="0" vertex="1">
          <mxGeometry relative="1" as="geometry" />
        </mxCell>
        <mxCell id="5Gar_HWYRisM9vSzeSFC-192" value="" style="group" parent="WIyWlLk6GJQsqaUBKTNV-1" vertex="1" connectable="0">
          <mxGeometry x="-1115" y="362" width="180" height="80" as="geometry" />
        </mxCell>
        <mxCell id="5Gar_HWYRisM9vSzeSFC-181" value="" style="rounded=1;whiteSpace=wrap;html=1;fillColor=#d5e8d4;strokeColor=#82b366;" parent="5Gar_HWYRisM9vSzeSFC-192" vertex="1">
          <mxGeometry width="180" height="80" as="geometry" />
        </mxCell>
        <mxCell id="5Gar_HWYRisM9vSzeSFC-182" value="&lt;i&gt;api_logicout.py&lt;/i&gt;" style="swimlane;fontStyle=0;childLayout=stackLayout;horizontal=1;startSize=30;horizontalStack=0;resizeParent=1;resizeParentMax=0;resizeLast=0;collapsible=1;marginBottom=0;whiteSpace=wrap;html=1;" parent="5Gar_HWYRisM9vSzeSFC-192" vertex="1">
          <mxGeometry x="20" y="10" width="140" height="60" as="geometry" />
        </mxCell>
        <mxCell id="5Gar_HWYRisM9vSzeSFC-183" value="&lt;i&gt;calcul_couts()&lt;/i&gt;" style="text;strokeColor=none;fillColor=none;align=left;verticalAlign=middle;spacingLeft=4;spacingRight=4;overflow=hidden;points=[[0,0.5],[1,0.5]];portConstraint=eastwest;rotatable=0;whiteSpace=wrap;html=1;" parent="5Gar_HWYRisM9vSzeSFC-182" vertex="1">
          <mxGeometry y="30" width="140" height="30" as="geometry" />
        </mxCell>
        <mxCell id="5Gar_HWYRisM9vSzeSFC-194" value="City contour" style="text;html=1;strokeColor=none;fillColor=none;align=center;verticalAlign=middle;whiteSpace=wrap;rounded=0;" parent="WIyWlLk6GJQsqaUBKTNV-1" vertex="1">
          <mxGeometry x="-480" y="-627" width="175" height="40" as="geometry" />
        </mxCell>
        <mxCell id="5Gar_HWYRisM9vSzeSFC-195" value="Country contour" style="text;html=1;strokeColor=none;fillColor=none;align=center;verticalAlign=middle;whiteSpace=wrap;rounded=0;" parent="WIyWlLk6GJQsqaUBKTNV-1" vertex="1">
          <mxGeometry x="-477.5" y="-557" width="175" height="40" as="geometry" />
        </mxCell>
        <mxCell id="5Gar_HWYRisM9vSzeSFC-196" value="&lt;font style=&quot;font-size: 16px;&quot;&gt;&lt;b&gt;Project datasets&lt;/b&gt;&lt;/font&gt;" style="rounded=1;whiteSpace=wrap;html=1;fillColor=#fff2cc;strokeColor=#d6b656;shadow=0;glass=0;arcSize=10;" parent="WIyWlLk6GJQsqaUBKTNV-1" vertex="1">
          <mxGeometry x="-215" y="-777" width="180" height="40" as="geometry" />
        </mxCell>
        <mxCell id="5Gar_HWYRisM9vSzeSFC-199" value="&lt;font style=&quot;font-size: 16px;&quot;&gt;&lt;b&gt;Administrative&lt;br&gt;datasets&lt;/b&gt;&lt;/font&gt;" style="rounded=1;whiteSpace=wrap;html=1;fillColor=#dae8fc;strokeColor=#6c8ebf;shadow=0;glass=0;arcSize=10;" parent="WIyWlLk6GJQsqaUBKTNV-1" vertex="1">
          <mxGeometry x="-215" y="-720" width="180" height="40" as="geometry" />
        </mxCell>
        <mxCell id="5Gar_HWYRisM9vSzeSFC-200" value="&lt;font style=&quot;font-size: 16px;&quot;&gt;&lt;b&gt;Scripts to run&lt;/b&gt;&lt;/font&gt;" style="rounded=1;whiteSpace=wrap;html=1;fillColor=#e1d5e7;strokeColor=#9673a6;shadow=0;glass=0;arcSize=10;" parent="WIyWlLk6GJQsqaUBKTNV-1" vertex="1">
          <mxGeometry x="-215" y="-664" width="180" height="40" as="geometry" />
        </mxCell>
        <mxCell id="5Gar_HWYRisM9vSzeSFC-201" value="&lt;font style=&quot;font-size: 16px;&quot;&gt;&lt;b&gt;Dependency scripts&lt;/b&gt;&lt;/font&gt;" style="rounded=1;whiteSpace=wrap;html=1;fillColor=#d5e8d4;strokeColor=#82b366;shadow=0;glass=0;arcSize=10;" parent="WIyWlLk6GJQsqaUBKTNV-1" vertex="1">
          <mxGeometry x="-215" y="-607" width="180" height="40" as="geometry" />
        </mxCell>
        <mxCell id="5Gar_HWYRisM9vSzeSFC-167" value="" style="endArrow=classic;html=1;rounded=0;entryX=0.5;entryY=0;entryDx=0;entryDy=0;dashed=1;exitX=0.477;exitY=0.997;exitDx=0;exitDy=0;exitPerimeter=0;" parent="WIyWlLk6GJQsqaUBKTNV-1" source="5Gar_HWYRisM9vSzeSFC-124" target="5Gar_HWYRisM9vSzeSFC-164" edge="1">
          <mxGeometry relative="1" as="geometry">
            <mxPoint x="-395" y="462" as="sourcePoint" />
            <mxPoint x="-390" y="171" as="targetPoint" />
          </mxGeometry>
        </mxCell>
        <mxCell id="5Gar_HWYRisM9vSzeSFC-168" value="INPUT" style="edgeLabel;html=1;align=center;verticalAlign=middle;resizable=0;points=[];" parent="5Gar_HWYRisM9vSzeSFC-167" vertex="1" connectable="0">
          <mxGeometry x="0.0727" relative="1" as="geometry">
            <mxPoint x="6" y="-6" as="offset" />
          </mxGeometry>
        </mxCell>
        <mxCell id="5Gar_HWYRisM9vSzeSFC-208" value="&lt;font style=&quot;font-size: 16px;&quot;&gt;&lt;b&gt;Output&lt;/b&gt;&lt;/font&gt;" style="rounded=1;whiteSpace=wrap;html=1;shadow=0;glass=0;arcSize=10;fillColor=#fad7ac;strokeColor=#b46504;" parent="WIyWlLk6GJQsqaUBKTNV-1" vertex="1">
          <mxGeometry x="-215" y="-547" width="180" height="40" as="geometry" />
        </mxCell>
        <mxCell id="5Gar_HWYRisM9vSzeSFC-202" value="" style="endArrow=classic;html=1;rounded=0;entryX=-0.006;entryY=0.781;entryDx=0;entryDy=0;exitX=1;exitY=0.5;exitDx=0;exitDy=0;entryPerimeter=0;" parent="WIyWlLk6GJQsqaUBKTNV-1" source="5Gar_HWYRisM9vSzeSFC-164" target="5Gar_HWYRisM9vSzeSFC-212" edge="1">
          <mxGeometry relative="1" as="geometry">
            <mxPoint x="-570" y="632" as="sourcePoint" />
            <mxPoint x="-610" y="712" as="targetPoint" />
          </mxGeometry>
        </mxCell>
        <mxCell id="5Gar_HWYRisM9vSzeSFC-203" value="OUTPUT" style="edgeLabel;html=1;align=center;verticalAlign=middle;resizable=0;points=[];" parent="5Gar_HWYRisM9vSzeSFC-202" vertex="1" connectable="0">
          <mxGeometry x="0.0727" relative="1" as="geometry">
            <mxPoint as="offset" />
          </mxGeometry>
        </mxCell>
        <mxCell id="5Gar_HWYRisM9vSzeSFC-215" value="" style="group" parent="WIyWlLk6GJQsqaUBKTNV-1" vertex="1" connectable="0">
          <mxGeometry x="-825" y="472" width="180" height="110" as="geometry" />
        </mxCell>
        <mxCell id="5Gar_HWYRisM9vSzeSFC-173" value="" style="rounded=1;whiteSpace=wrap;html=1;fillColor=#d5e8d4;strokeColor=#82b366;container=1;" parent="5Gar_HWYRisM9vSzeSFC-215" vertex="1">
          <mxGeometry width="180" height="110" as="geometry" />
        </mxCell>
        <mxCell id="5Gar_HWYRisM9vSzeSFC-174" value="&lt;i&gt;mutualisation.py&lt;/i&gt;" style="swimlane;fontStyle=0;childLayout=stackLayout;horizontal=1;startSize=30;horizontalStack=0;resizeParent=1;resizeParentMax=0;resizeLast=0;collapsible=1;marginBottom=0;whiteSpace=wrap;html=1;" parent="5Gar_HWYRisM9vSzeSFC-215" vertex="1">
          <mxGeometry x="20" y="8.571428571428555" width="140" height="81.42857142857142" as="geometry" />
        </mxCell>
        <mxCell id="5Gar_HWYRisM9vSzeSFC-175" value="&lt;i&gt;route_calculation()&lt;/i&gt;" style="text;strokeColor=none;fillColor=none;align=left;verticalAlign=middle;spacingLeft=4;spacingRight=4;overflow=hidden;points=[[0,0.5],[1,0.5]];portConstraint=eastwest;rotatable=0;whiteSpace=wrap;html=1;" parent="5Gar_HWYRisM9vSzeSFC-174" vertex="1">
          <mxGeometry y="30" width="140" height="25.71428571428571" as="geometry" />
        </mxCell>
        <mxCell id="5Gar_HWYRisM9vSzeSFC-176" value="&lt;i&gt;comparison()&lt;/i&gt;" style="text;strokeColor=none;fillColor=none;align=left;verticalAlign=middle;spacingLeft=4;spacingRight=4;overflow=hidden;points=[[0,0.5],[1,0.5]];portConstraint=eastwest;rotatable=0;whiteSpace=wrap;html=1;" parent="5Gar_HWYRisM9vSzeSFC-174" vertex="1">
          <mxGeometry y="55.71428571428571" width="140" height="25.71428571428571" as="geometry" />
        </mxCell>
        <mxCell id="5Gar_HWYRisM9vSzeSFC-218" value="" style="group" parent="WIyWlLk6GJQsqaUBKTNV-1" vertex="1" connectable="0">
          <mxGeometry x="-583" y="-158" width="180" height="150" as="geometry" />
        </mxCell>
        <mxCell id="5Gar_HWYRisM9vSzeSFC-209" value="" style="rounded=1;whiteSpace=wrap;html=1;shadow=0;glass=0;arcSize=10;fillColor=#fad7ac;strokeColor=#b46504;" parent="5Gar_HWYRisM9vSzeSFC-218" vertex="1">
          <mxGeometry width="180" height="150" as="geometry" />
        </mxCell>
        <mxCell id="5Gar_HWYRisM9vSzeSFC-74" value="simulation_gdf.csv" style="swimlane;whiteSpace=wrap;html=1;" parent="5Gar_HWYRisM9vSzeSFC-218" vertex="1">
          <mxGeometry x="10" y="10" width="160" height="130" as="geometry" />
        </mxCell>
        <mxCell id="5Gar_HWYRisM9vSzeSFC-75" value="id&lt;br&gt;id_simulation&lt;br&gt;index&lt;br&gt;temps_sur_place_min&lt;br&gt;longitude&lt;br&gt;latitude" style="text;html=1;align=left;verticalAlign=middle;resizable=0;points=[];autosize=1;strokeColor=none;fillColor=none;" parent="5Gar_HWYRisM9vSzeSFC-74" vertex="1">
          <mxGeometry x="10" y="30" width="140" height="100" as="geometry" />
        </mxCell>
        <mxCell id="5Gar_HWYRisM9vSzeSFC-89" value="" style="endArrow=classic;html=1;rounded=0;entryX=0.5;entryY=0;entryDx=0;entryDy=0;exitX=0.25;exitY=1;exitDx=0;exitDy=0;" parent="WIyWlLk6GJQsqaUBKTNV-1" source="5Gar_HWYRisM9vSzeSFC-105" target="5Gar_HWYRisM9vSzeSFC-209" edge="1">
          <mxGeometry relative="1" as="geometry">
            <mxPoint x="-425" y="-217" as="sourcePoint" />
            <mxPoint x="-385" y="-197" as="targetPoint" />
          </mxGeometry>
        </mxCell>
        <mxCell id="5Gar_HWYRisM9vSzeSFC-92" value="OUTPUT" style="edgeLabel;html=1;align=center;verticalAlign=middle;resizable=0;points=[];" parent="5Gar_HWYRisM9vSzeSFC-89" vertex="1" connectable="0">
          <mxGeometry x="0.0727" relative="1" as="geometry">
            <mxPoint as="offset" />
          </mxGeometry>
        </mxCell>
        <mxCell id="5Gar_HWYRisM9vSzeSFC-222" value="" style="endArrow=classic;html=1;rounded=0;fontSize=23;entryX=0.75;entryY=1;entryDx=0;entryDy=0;exitX=0.5;exitY=0;exitDx=0;exitDy=0;" parent="WIyWlLk6GJQsqaUBKTNV-1" source="5Gar_HWYRisM9vSzeSFC-173" target="5Gar_HWYRisM9vSzeSFC-122" edge="1">
          <mxGeometry relative="1" as="geometry">
            <mxPoint x="-815" y="499" as="sourcePoint" />
            <mxPoint x="-925" y="452" as="targetPoint" />
          </mxGeometry>
        </mxCell>
        <mxCell id="5Gar_HWYRisM9vSzeSFC-223" value="Depends on" style="edgeLabel;resizable=0;html=1;align=center;verticalAlign=middle;fontSize=17;" parent="5Gar_HWYRisM9vSzeSFC-222" connectable="0" vertex="1">
          <mxGeometry relative="1" as="geometry" />
        </mxCell>
        <mxCell id="5Gar_HWYRisM9vSzeSFC-225" value="" style="endArrow=classic;html=1;rounded=0;exitX=0;exitY=1;exitDx=0;exitDy=0;fontSize=23;entryX=1;entryY=0;entryDx=0;entryDy=0;" parent="WIyWlLk6GJQsqaUBKTNV-1" source="5Gar_HWYRisM9vSzeSFC-115" target="5Gar_HWYRisM9vSzeSFC-133" edge="1">
          <mxGeometry relative="1" as="geometry">
            <mxPoint x="-774" y="276" as="sourcePoint" />
            <mxPoint x="-925" y="269" as="targetPoint" />
          </mxGeometry>
        </mxCell>
        <mxCell id="5Gar_HWYRisM9vSzeSFC-226" value="Depends on" style="edgeLabel;resizable=0;html=1;align=center;verticalAlign=middle;fontSize=17;" parent="5Gar_HWYRisM9vSzeSFC-225" connectable="0" vertex="1">
          <mxGeometry relative="1" as="geometry" />
        </mxCell>
        <mxCell id="5Gar_HWYRisM9vSzeSFC-227" value="" style="endArrow=classic;html=1;rounded=0;exitX=0;exitY=0;exitDx=0;exitDy=0;fontSize=23;entryX=1;entryY=0.75;entryDx=0;entryDy=0;" parent="WIyWlLk6GJQsqaUBKTNV-1" source="5Gar_HWYRisM9vSzeSFC-115" target="5Gar_HWYRisM9vSzeSFC-140" edge="1">
          <mxGeometry relative="1" as="geometry">
            <mxPoint x="-764" y="286" as="sourcePoint" />
            <mxPoint x="-915" y="279" as="targetPoint" />
          </mxGeometry>
        </mxCell>
        <mxCell id="5Gar_HWYRisM9vSzeSFC-228" value="Depends on" style="edgeLabel;resizable=0;html=1;align=center;verticalAlign=middle;fontSize=17;" parent="5Gar_HWYRisM9vSzeSFC-227" connectable="0" vertex="1">
          <mxGeometry relative="1" as="geometry" />
        </mxCell>
        <mxCell id="5Gar_HWYRisM9vSzeSFC-229" value="logs.txt" style="swimlane;whiteSpace=wrap;html=1;" parent="WIyWlLk6GJQsqaUBKTNV-1" vertex="1">
          <mxGeometry x="-1097.5" y="512" width="145" height="60" as="geometry" />
        </mxCell>
        <mxCell id="5Gar_HWYRisM9vSzeSFC-231" value="simulation_reel_gdf.csv" style="swimlane;whiteSpace=wrap;html=1;" parent="WIyWlLk6GJQsqaUBKTNV-1" vertex="1">
          <mxGeometry x="-362" y="-148" width="170" height="130" as="geometry" />
        </mxCell>
        <mxCell id="5Gar_HWYRisM9vSzeSFC-232" value="id&lt;br&gt;id_simulation&lt;br&gt;index&lt;br&gt;temps_sur_place_min&lt;br&gt;longitude&lt;br&gt;latitude" style="text;html=1;align=left;verticalAlign=middle;resizable=0;points=[];autosize=1;strokeColor=none;fillColor=none;" parent="5Gar_HWYRisM9vSzeSFC-231" vertex="1">
          <mxGeometry x="10" y="30" width="140" height="100" as="geometry" />
        </mxCell>
        <mxCell id="5Gar_HWYRisM9vSzeSFC-233" value="trajets_mutualises.csv" style="swimlane;whiteSpace=wrap;html=1;" parent="WIyWlLk6GJQsqaUBKTNV-1" vertex="1">
          <mxGeometry x="-183" y="481.5" width="170" height="67" as="geometry" />
        </mxCell>
        <mxCell id="5Gar_HWYRisM9vSzeSFC-236" value="" style="group" parent="WIyWlLk6GJQsqaUBKTNV-1" vertex="1" connectable="0">
          <mxGeometry x="-195" y="142" width="160" height="300" as="geometry" />
        </mxCell>
        <mxCell id="5Gar_HWYRisM9vSzeSFC-212" value="" style="rounded=1;whiteSpace=wrap;html=1;shadow=0;glass=0;arcSize=10;fillColor=#fad7ac;strokeColor=#b46504;" parent="5Gar_HWYRisM9vSzeSFC-236" vertex="1">
          <mxGeometry width="160" height="300" as="geometry" />
        </mxCell>
        <mxCell id="5Gar_HWYRisM9vSzeSFC-204" value="gains.csv" style="swimlane;whiteSpace=wrap;html=1;" parent="5Gar_HWYRisM9vSzeSFC-236" vertex="1">
          <mxGeometry x="10" y="5" width="140" height="280" as="geometry" />
        </mxCell>
        <mxCell id="5Gar_HWYRisM9vSzeSFC-205" value="&lt;div&gt;id&lt;/div&gt;&lt;div&gt;idA&lt;/div&gt;&lt;div&gt;idB&lt;/div&gt;&lt;div&gt;tps_min&lt;/div&gt;&lt;div&gt;distance_km&lt;/div&gt;&lt;div&gt;cout&lt;/div&gt;&lt;div&gt;CO_g&lt;/div&gt;&lt;div&gt;COV_g&lt;/div&gt;&lt;div&gt;NOX_g&lt;/div&gt;&lt;div&gt;NH3_g&lt;/div&gt;&lt;div&gt;PB_g&lt;/div&gt;&lt;div&gt;SO2_g&lt;/div&gt;&lt;div&gt;PS_g&lt;/div&gt;&lt;div&gt;CO2_g&lt;/div&gt;&lt;div&gt;N2O_g&lt;/div&gt;&lt;div&gt;CH4_g&lt;/div&gt;&lt;div&gt;cout_collectif&lt;/div&gt;" style="text;html=1;align=left;verticalAlign=middle;resizable=0;points=[];autosize=1;strokeColor=none;fillColor=none;" parent="5Gar_HWYRisM9vSzeSFC-204" vertex="1">
          <mxGeometry x="5" y="20" width="90" height="260" as="geometry" />
        </mxCell>
        <mxCell id="5Gar_HWYRisM9vSzeSFC-237" value="" style="endArrow=classic;html=1;rounded=0;entryX=0;entryY=0.5;entryDx=0;entryDy=0;exitX=1;exitY=0.5;exitDx=0;exitDy=0;" parent="WIyWlLk6GJQsqaUBKTNV-1" source="5Gar_HWYRisM9vSzeSFC-164" target="5Gar_HWYRisM9vSzeSFC-234" edge="1">
          <mxGeometry relative="1" as="geometry">
            <mxPoint x="-275" y="487" as="sourcePoint" />
            <mxPoint x="-186" y="386" as="targetPoint" />
          </mxGeometry>
        </mxCell>
        <mxCell id="5Gar_HWYRisM9vSzeSFC-238" value="OUTPUT" style="edgeLabel;html=1;align=center;verticalAlign=middle;resizable=0;points=[];" parent="5Gar_HWYRisM9vSzeSFC-237" vertex="1" connectable="0">
          <mxGeometry x="0.0727" relative="1" as="geometry">
            <mxPoint as="offset" />
          </mxGeometry>
        </mxCell>
        <mxCell id="PiVPIacsJQTUX6XWT7j2-1" value="" style="endArrow=classic;html=1;rounded=0;exitX=0.5;exitY=1;exitDx=0;exitDy=0;entryX=0.5;entryY=0;entryDx=0;entryDy=0;" edge="1" parent="WIyWlLk6GJQsqaUBKTNV-1" source="5Gar_HWYRisM9vSzeSFC-181" target="PiVPIacsJQTUX6XWT7j2-0">
          <mxGeometry relative="1" as="geometry">
            <mxPoint x="-1030" y="442" as="sourcePoint" />
            <mxPoint x="-1028" y="500" as="targetPoint" />
          </mxGeometry>
        </mxCell>
        <mxCell id="PiVPIacsJQTUX6XWT7j2-2" value="OUTPUT" style="edgeLabel;html=1;align=center;verticalAlign=middle;resizable=0;points=[];" vertex="1" connectable="0" parent="PiVPIacsJQTUX6XWT7j2-1">
          <mxGeometry x="0.0727" relative="1" as="geometry">
            <mxPoint as="offset" />
          </mxGeometry>
        </mxCell>
      </root>
    </mxGraphModel>
  </diagram>
</mxfile>
